<?xml version="1.0" standalone="no"?>
<svg xmlns:xlink="http://www.w3.org/1999/xlink" id="wave" style="transform:rotate(180deg); transition: 0.3s" viewBox="0 0 1440 150" version="1.1" xmlns="http://www.w3.org/2000/svg"><defs><linearGradient id="sw-gradient-0" x1="0" x2="0" y1="1" y2="0"><stop stop-color="rgba(28, 28, 28, 1)" offset="0%"/><stop stop-color="rgba(28, 28, 28, 1)" offset="100%"/></linearGradient></defs><path style="transform:translate(0, 0px); opacity:1" fill="url(#sw-gradient-0)" d="M0,105L80,110C160,115,320,125,480,107.5C640,90,800,45,960,27.5C1120,10,1280,20,1440,20C1600,20,1760,10,1920,15C2080,20,2240,40,2400,62.5C2560,85,2720,110,2880,100C3040,90,3200,45,3360,25C3520,5,3680,10,3840,27.5C4000,45,4160,75,4320,92.5C4480,110,4640,115,4800,110C4960,105,5120,90,5280,85C5440,80,5600,85,5760,90C5920,95,6080,100,6240,92.5C6400,85,6560,65,6720,57.5C6880,50,7040,55,7200,60C7360,65,7520,70,7680,72.5C7840,75,8000,75,8160,62.5C8320,50,8480,25,8640,17.5C8800,10,8960,20,9120,32.5C9280,45,9440,60,9600,75C9760,90,9920,105,10080,92.5C10240,80,10400,40,10560,25C10720,10,10880,20,11040,25C11200,30,11360,30,11440,30L11520,30L11520,150L11440,150C11360,150,11200,150,11040,150C10880,150,10720,150,10560,150C10400,150,10240,150,10080,150C9920,150,9760,150,9600,150C9440,150,9280,150,9120,150C8960,150,8800,150,8640,150C8480,150,8320,150,8160,150C8000,150,7840,150,7680,150C7520,150,7360,150,7200,150C7040,150,6880,150,6720,150C6560,150,6400,150,6240,150C6080,150,5920,150,5760,150C5600,150,5440,150,5280,150C5120,150,4960,150,4800,150C4640,150,4480,150,4320,150C4160,150,4000,150,3840,150C3680,150,3520,150,3360,150C3200,150,3040,150,2880,150C2720,150,2560,150,2400,150C2240,150,2080,150,1920,150C1760,150,1600,150,1440,150C1280,150,1120,150,960,150C800,150,640,150,480,150C320,150,160,150,80,150L0,150Z"/></svg>